<svg version="1.1" preserveAspectRatio="none" xmlns="http://www.w3.org/2000/svg" width="50" height="50" viewBox="0 0 500 500">
<svg viewBox="144.3705 475.0968 248.6652 455.53" width="181.77839351963647" height="333" x="159.1108px" y="83.5px" xmlns="http://www.w3.org/2000/svg" xmlns:xlink="http://www.w3.org/1999/xlink" preserveAspectRatio="none"><defs></defs><style>.companyName {fill:#1C1C1C;fill-opacity:1;}.icon1 {fill:#1C1C1C;fill-opacity:1;}.icon2 {fill:#BAAE57;fill-opacity:1;}.icon3 {fill:#E192BB;fill-opacity:1;}.icon3-str {stroke:#E192BB;stroke-opacity:1;}</style><g opacity="1" transform="rotate(0 144.3705 810.6268)">
<svg width="248.6652" height="120" x="144.3705" y="810.6268" version="1.1" preserveAspectRatio="none" viewBox="0 -24.52 51.64 24.92">
  <g transform="matrix(1 0 0 1 0 0)" class="companyName"><path id="id-D6z1nYkh2" d="M13.60-17.60L8.96-17.60L8.96-7.84Q8.96-4.40 9.24-3.66Q9.52-2.92 9.84-2.40L9.84-2.40Q10.44-1.36 11.94-1.36Q13.44-1.36 14.04-1.76L14.04-1.76L14.04-0.96Q12.12 0.40 9.84 0.40L9.84 0.40Q6.48 0.40 4.72-1.20Q2.96-2.80 2.96-6.92L2.96-6.92L2.96-17.60L0-17.60L0-18.40L2.96-18.40Q4.88-18.72 6.36-20.26Q7.84-21.80 8.40-24.52L8.40-24.52L8.96-24.52L8.96-18.40L13.60-18.40L13.60-17.60Z M49.64-11.12L49.64-0.80L51.64-0.80L51.64 0L41.64 0L41.64-0.80L43.64-0.80L43.64-12Q43.64-14.84 42.80-16.04Q41.96-17.24 40.28-17.24L40.28-17.24Q39.32-17.24 38.28-16.68Q37.24-16.12 36.56-15.12L36.56-15.12Q37.04-13.68 37.04-11.12L37.04-11.12L37.04-0.80L39.04-0.80L39.04 0L28.64 0L28.64-0.80L31.04-0.80L31.04-12Q31.04-14.84 30.20-16.04Q29.36-17.24 27.68-17.24L27.68-17.24Q25.40-17.24 24.04-14.84L24.04-14.84L24.04-0.80L26.04-0.80L26.04 0L16.04 0L16.04-0.80L18.04-0.80L18.04-17.60L16.04-17.60L16.04-18.40L24.04-18.40L24.04-16.32Q24.80-17.36 26.42-18.10Q28.04-18.84 29.92-18.84L29.92-18.84Q34.68-18.84 36.12-16.16L36.12-16.16Q37.16-17.44 38.88-18.14Q40.60-18.84 42.52-18.84L42.52-18.84Q49.64-18.84 49.64-11.12L49.64-11.12Z"/></g>
</svg>
</g><g opacity="1" transform="rotate(0 144.3705 475.0968)">
<svg width="248.6652" height="295.53" x="144.3705" y="475.0968" version="1.1" preserveAspectRatio="none" viewBox="10.72323226928711 4.700830459594727 69.23297119140625 82.28096771240234">
  <g transform="matrix(1 0 0 1 0 0)" class="icon1"><g><path d="M52.7,71c-3.1,3.9,2.5,8.3,5.4,4.2c6.6-9.1,12.6-18.8,17.1-29.1c3.8-8.7,7-19.8,2.7-28.9c-4.7-10-15.6-3-20.5,2.7   c-4.6,5.4-7.7,11.8-10.3,18.4c-2.4-8-5.2-15.8-9.6-23C33.2,8,24.1,0.4,15.8,7.6c-8.4,7.3-4.6,19.3-1.2,28.1   c3.7,9.6,8.6,18.8,14.8,27c7,9.1,15.2,17.1,24.3,24c1.4,1.1,2.9-1.3,1.4-2.4C37.8,70.9,24.6,51.2,17.8,30.4   c-1.7-5.2-3.7-11.9-0.3-16.9c4.1-6.1,10.2-2.6,13.7,2.1C38.1,25,41.1,37,44.3,48c0.8,2.8,4.5,2.5,5.4,0c2.7-7.4,5.5-14.7,9.9-21.3   c2-3,4.6-6.4,7.9-8.2c5.3-2.9,6.8,2.3,7.1,6.7c0.5,8.6-3.5,16.8-7.4,24.1C62.9,57,58.1,64.3,52.7,71z"></path></g></g>
</svg>
</g></svg></svg>